<svg xmlns="http://www.w3.org/2000/svg"><symbol viewBox="0 0 32 32" id="icon-calendar"><title>calendar</title> <g> <path fill="none" d="M3.097,29.064h25.805c0.089,0,0.163-0.075,0.163-0.164l0.001-22.901c0-0.089-0.073-0.161-0.163-0.161h-3.709
		V7.29c0,0.801-0.651,1.452-1.453,1.452c-0.799,0-1.451-0.651-1.451-1.452V5.838h-4.837V7.29c0,0.801-0.651,1.452-1.452,1.452
		c-0.8,0-1.451-0.651-1.451-1.452V5.838H9.71V7.29c0,0.801-0.651,1.452-1.452,1.452c-0.8,0-1.452-0.651-1.452-1.452V5.838H3.097
		C3.008,5.838,2.936,5.91,2.936,6v22.9C2.936,28.989,3.01,29.064,3.097,29.064z"/> <path fill="#040305" d="M28.902,2.935h-3.709V1.482c0-0.8-0.651-1.451-1.453-1.451c-0.799,0-1.451,0.651-1.451,1.451v1.452h-4.837
		V1.482c0-0.8-0.651-1.451-1.452-1.451c-0.8,0-1.451,0.651-1.451,1.451v1.452H9.709V1.482c0-0.8-0.651-1.451-1.452-1.451
		c-0.8,0-1.452,0.651-1.452,1.451v1.452H3.097C1.407,2.935,0.032,4.31,0.032,6v22.9c0,1.691,1.375,3.066,3.065,3.066h25.805
		c1.69,0,3.064-1.375,3.064-3.066V6C31.967,4.31,30.593,2.935,28.902,2.935z M2.936,6c0-0.09,0.072-0.162,0.162-0.162h3.709V7.29
		c0,0.801,0.652,1.452,1.452,1.452C9.06,8.742,9.71,8.09,9.71,7.29V5.838h4.839V7.29c0,0.801,0.651,1.452,1.451,1.452
		c0.801,0,1.452-0.651,1.452-1.452V5.838h4.837V7.29c0,0.801,0.652,1.452,1.451,1.452c0.802,0,1.453-0.651,1.453-1.452V5.838h3.709
		c0.09,0,0.163,0.072,0.163,0.161L29.065,28.9c0,0.089-0.074,0.164-0.163,0.164H3.097c-0.087,0-0.162-0.075-0.162-0.164V6z"/> </g> <rect x="7.001" y="12" fill="#040305" width="3.999" height="3"/> <rect x="7.001" y="16.999" fill="#040305" width="3.999" height="3"/> <rect x="7.001" y="21.998" fill="#040305" width="3.999" height="2.999"/> <rect x="14" y="21.998" fill="#040305" width="3.999" height="2.999"/> <rect x="14" y="16.999" fill="#040305" width="3.999" height="3"/> <rect x="14" y="12" fill="#040305" width="3.999" height="3"/> <rect x="20.999" y="21.998" fill="#040305" width="4" height="2.999"/> <rect x="20.999" y="16.999" fill="#040305" width="4" height="3"/> <rect x="20.999" y="12" fill="#040305" width="4" height="3"/> </symbol><symbol viewBox="0 0 32 32" id="icon-capacity"><title>capacity</title> <g> <g> <path fill="#040305" d="M24.979,19.128c0.468,0.234,0.702,0.633,0.702,1.194v4.534v0.809c0,0.352-0.104,0.656-0.315,0.914
			c-0.21,0.258-0.479,0.387-0.81,0.387H7.302c-0.305,0-0.562-0.129-0.774-0.387c-0.21-0.258-0.315-0.562-0.315-0.914v-0.809v-4.534
			c0-0.562,0.234-0.96,0.702-1.194l4.851-2.249L13.663,16c-0.891-0.539-1.571-1.312-2.039-2.319
			c-0.446-0.89-0.668-1.839-0.668-2.848c0-0.305,0.024-0.597,0.071-0.878c0.046-0.282,0.105-0.551,0.175-0.809
			c0.329-1.194,0.92-2.179,1.775-2.953c0.855-0.772,1.845-1.16,2.969-1.16c1.148,0,2.156,0.399,3.023,1.196
			c0.866,0.796,1.452,1.803,1.758,3.021c0.117,0.586,0.174,1.113,0.174,1.582c0,0.938-0.186,1.839-0.561,2.707
			c-0.469,1.055-1.147,1.851-2.038,2.39l2.002,0.949L24.979,19.128L24.979,19.128z M6.212,17.652
			C5.696,17.886,5.292,18.243,5,18.724c-0.293,0.48-0.439,1.014-0.439,1.599v4.534H0.94c-0.258,0-0.468-0.099-0.633-0.299
			c-0.164-0.199-0.246-0.45-0.246-0.755v-4.288c0-0.516,0.188-0.844,0.562-0.983L6.071,16c-0.656-0.398-1.184-0.966-1.582-1.705
			c-0.398-0.738-0.598-1.564-0.598-2.478c0-0.632,0.105-1.235,0.317-1.81c0.21-0.575,0.498-1.073,0.86-1.494
			c0.363-0.422,0.785-0.755,1.265-1.001c0.481-0.246,1.002-0.369,1.564-0.369c0.375,0,0.726,0.059,1.055,0.175
			c0.327,0.117,0.644,0.27,0.948,0.457C9.504,8.76,9.305,9.78,9.305,10.833c0,0.82,0.117,1.611,0.351,2.373
			c0.234,0.761,0.562,1.447,0.984,2.056c-0.258,0.282-0.527,0.504-0.809,0.668L6.212,17.652z M31.377,18.531
			c0.375,0.188,0.562,0.515,0.562,0.983v4.287c0,0.306-0.082,0.557-0.246,0.756c-0.163,0.2-0.375,0.299-0.634,0.299h-3.724v-4.534
			c0-0.585-0.148-1.118-0.439-1.599c-0.294-0.48-0.686-0.838-1.178-1.071L22.239,16c-0.329-0.188-0.645-0.456-0.95-0.809
			c0.398-0.609,0.709-1.283,0.932-2.021c0.222-0.738,0.334-1.517,0.334-2.337c0-0.539-0.048-1.053-0.141-1.545
			c-0.094-0.492-0.234-0.972-0.421-1.442c0.304-0.21,0.631-0.38,0.982-0.509c0.354-0.129,0.717-0.193,1.092-0.193
			c0.561,0,1.089,0.123,1.581,0.369s0.92,0.579,1.283,1.001c0.362,0.421,0.649,0.919,0.859,1.494
			c0.213,0.574,0.317,1.178,0.317,1.81c0,0.891-0.2,1.704-0.6,2.442c-0.396,0.738-0.9,1.307-1.509,1.706L31.377,18.531
			L31.377,18.531z"/> </g> </g> </symbol><symbol viewBox="0 0 32 32" id="icon-company"><title>company</title> <g> <g id="company-Layer_1_78_"> <g> <path fill="#010101" d="M30.5,29.053H1.488c-0.802,0-1.451,0.65-1.451,1.453c0,0.801,0.649,1.449,1.451,1.449H30.5
				c0.801,0,1.451-0.648,1.451-1.449C31.949,29.703,31.301,29.053,30.5,29.053z"/> <path fill="#010101" d="M3.301,25.281c-0.801,0-1.451,0.65-1.451,1.451s0.649,1.451,1.451,1.451h25.385
				c0.803,0,1.451-0.65,1.451-1.451s-0.648-1.451-1.451-1.451h-0.361V12.226h0.361c0.402,0,0.727-0.324,0.727-0.725
				c0-0.4-0.326-0.725-0.727-0.725H3.301c-0.401,0-0.725,0.325-0.725,0.725c0,0.4,0.324,0.725,0.725,0.725h0.363v13.055H3.301
				L3.301,25.281z M25.422,12.226v13.055H21.07V12.226H25.422z M18.168,12.226v13.055h-4.351V12.226H18.168z M6.564,12.226h4.352
				v13.055H6.564V12.226z"/> <path fill="#010101" d="M1.488,9.473H30.5c0.004,0,0.01,0,0.014,0c0.801,0,1.449-0.649,1.449-1.451
				c0-0.637-0.408-1.177-0.979-1.373L16.59,0.172c-0.378-0.17-0.811-0.17-1.19,0L0.893,6.699C0.269,6.98-0.074,7.658,0.069,8.327
				C0.213,8.995,0.804,9.473,1.488,9.473z"/> </g> </g> </g> </symbol><symbol viewBox="0 0 32 32" id="icon-course"><title>course</title> <g> <g> <path fill="#060507" d="M23.276,27.758c0.238,0.038,0.479-0.021,0.677-0.163c0.191-0.139,0.326-0.354,0.36-0.595l0.217-1.423
			c0.04-0.285,0.219-0.53,0.479-0.66l1.288-0.644c0.219-0.109,0.382-0.298,0.454-0.526c0.075-0.232,0.053-0.481-0.057-0.696
			l-0.664-1.284c-0.129-0.251-0.129-0.557,0-0.809l0.664-1.283c0.109-0.215,0.132-0.463,0.057-0.694
			c-0.075-0.232-0.238-0.42-0.454-0.529l-1.288-0.643c-0.261-0.132-0.439-0.375-0.479-0.661l-0.217-1.423
			c-0.034-0.239-0.169-0.454-0.36-0.593c-0.197-0.144-0.438-0.202-0.677-0.164l-1.426,0.239c-0.282,0.046-0.57-0.047-0.771-0.251
			l-1.013-1.029c-0.172-0.17-0.401-0.267-0.646-0.267c-0.238,0-0.473,0.097-0.643,0.267l-1.012,1.029
			c-0.201,0.205-0.49,0.298-0.772,0.251l-1.423-0.235c-0.238-0.039-0.481,0.02-0.679,0.164c-0.194,0.14-0.326,0.354-0.362,0.593
			l-0.213,1.423c-0.044,0.286-0.223,0.528-0.479,0.66l-1.291,0.643c-0.213,0.111-0.379,0.298-0.453,0.529
			c-0.075,0.232-0.053,0.479,0.057,0.696l0.663,1.281c0.132,0.252,0.132,0.558,0,0.809l-0.663,1.285
			c-0.11,0.214-0.132,0.463-0.057,0.695c0.075,0.229,0.238,0.417,0.453,0.528l1.291,0.644c0.257,0.13,0.436,0.373,0.479,0.66
			l0.213,1.422c0.036,0.238,0.168,0.453,0.362,0.595c0.196,0.144,0.439,0.201,0.679,0.162l1.423-0.233
			c0.282-0.048,0.571,0.046,0.772,0.249l1.012,1.026c0.17,0.176,0.401,0.271,0.643,0.271c0.244,0,0.477-0.096,0.646-0.271
			l1.013-1.026c0.2-0.203,0.488-0.297,0.771-0.249L23.276,27.758z M19.422,26.719c-3.029,0-5.49-2.461-5.49-5.488
			s2.463-5.49,5.49-5.49c3.027,0,5.49,2.466,5.49,5.49C24.912,24.256,22.452,26.719,19.422,26.719z"/> <path fill="#060507" d="M19.422,16.531c-2.585,0-4.691,2.104-4.691,4.689c0,2.589,2.107,4.691,4.691,4.691
			c2.589,0,4.691-2.103,4.691-4.691C24.113,18.636,22.011,16.531,19.422,16.531z"/> <path fill="#060507" d="M27.598,28.786l-2.551-2.555l-0.132,0.862c-0.06,0.395-0.278,0.762-0.604,0.996
			c-0.322,0.235-0.727,0.336-1.131,0.27l-1.426-0.231c-0.119-0.01-0.188,0.025-0.241,0.078l-0.245,0.244l3.335,3.333
			c0.131,0.13,0.316,0.174,0.488,0.124c0.173-0.057,0.301-0.197,0.335-0.376l0.302-1.62l1.623-0.305
			c0.175-0.031,0.319-0.159,0.373-0.333C27.773,29.1,27.727,28.911,27.598,28.786z"/> <path fill="#060507" d="M17.137,28.121l-1.469,0.238c-0.412,0.062-0.81-0.034-1.135-0.272c-0.324-0.235-0.543-0.599-0.604-0.998
			L13.8,26.231l-2.553,2.555c-0.127,0.127-0.174,0.313-0.122,0.485c0.055,0.174,0.199,0.3,0.375,0.335l1.622,0.303l0.304,1.622
			c0.033,0.179,0.161,0.319,0.333,0.376c0.171,0.05,0.359,0.006,0.484-0.122l3.334-3.335l-0.244-0.247
			C17.281,28.149,17.209,28.121,17.137,28.121z"/> <path fill="#060507" d="M20.876,5.415H8.922c-0.431,0-0.779,0.349-0.779,0.78c-0.001,0.433,0.348,0.78,0.779,0.78h11.954
			c0.433,0,0.78-0.347,0.78-0.778C21.656,5.766,21.306,5.415,20.876,5.415z"/> <path fill="#060507" d="M20.876,9.411H8.922c-0.431,0-0.779,0.349-0.779,0.777c-0.001,0.431,0.348,0.78,0.779,0.78h11.954
			c0.433,0,0.78-0.347,0.78-0.779C21.656,9.759,21.306,9.411,20.876,9.411z"/> <path fill="#060507" d="M12.581,25.687l-0.589-0.295c-0.152-0.076-0.288-0.174-0.415-0.281H6.545
			c-0.345,0-0.625-0.282-0.625-0.624V2.357c0-0.345,0.28-0.625,0.625-0.625h16.747c0.345,0,0.624,0.28,0.624,0.625V13.77
			c0.278,0.065,0.545,0.187,0.78,0.361c0.454,0.325,0.771,0.846,0.855,1.414l0.024-13.186c0.004-1.26-1.024-2.287-2.284-2.287H6.545
			c-1.261,0-2.288,1.028-2.288,2.287v22.129c0,1.261,1.028,2.289,2.288,2.289h4.947L12.581,25.687z"/> </g> </g> </symbol><symbol viewBox="-58 32 32 32" id="icon-location"><title>location</title> <g> <path d="M-42,32c-5.8,0-10.6,4.8-10.6,10.6c0,2.4,1.5,6.2,4.6,11.7c2.2,3.9,4.3,7.2,4.4,7.3L-42,64l1.6-2.4
		c0.1-0.1,2.2-3.4,4.4-7.3c3.1-5.5,4.6-9.4,4.6-11.7C-31.4,36.7-36.2,32-42,32z M-42,48c-3,0-5.5-2.5-5.5-5.5c0-3,2.5-5.5,5.5-5.5
		s5.5,2.5,5.5,5.5C-36.5,45.5-39,48-42,48z"/> </g> </symbol><symbol viewBox="0 0 32 32" id="icon-price"><title>price</title> <g> <path fill="#010101" d="M21.847,19.969h-8.149c0.057,2.754,0.722,4.871,1.995,6.351c1.273,1.483,3.077,2.224,5.412,2.224
		c1.642,0,3.184-0.239,4.626-0.722l0.425,3.414c-1.698,0.428-3.396,0.64-5.094,0.64c-3.509,0-6.271-1.034-8.288-3.109
		c-2.016-2.072-3.066-5.003-3.151-8.797H5.845v-2.632h3.778v-2.908H5.845v-2.652h3.778c0.141-3.707,1.22-6.576,3.236-8.606
		c2.016-2.03,4.744-3.045,8.181-3.045c1.501,0,3.205,0.218,5.115,0.654L25.73,4.2c-1.541-0.495-3.09-0.743-4.647-0.743
		c-2.32,0-4.107,0.72-5.359,2.16c-1.252,1.44-1.921,3.493-2.006,6.16h8.128v2.652h-8.149v2.908h8.149V19.969z"/> </g> </symbol><symbol viewBox="0 0 32 32" id="icon-sale"><title>sale</title> <g> <g> <path fill="#010101" d="M16.245,0.876c-0.383-0.385-1.141-0.682-1.685-0.662L1.025,0C0.482,0.021,0.021,0.482,0,1.024L0.214,14.56
			c-0.021,0.542,0.277,1.301,0.661,1.687l15.477,15.477c0.384,0.383,1.012,0.383,1.398,0l13.973-13.975
			c0.383-0.385,0.383-1.013,0-1.397L16.245,0.876z M3.257,3.208c0.839-0.839,2.2-0.839,3.039,0c0.84,0.84,0.839,2.201,0,3.04
			c-0.839,0.84-2.2,0.84-3.039,0C2.417,5.408,2.417,4.048,3.257,3.208z M28.624,17.794l-10.828,10.83
			c-0.386,0.385-1.014,0.385-1.399,0L3.792,16.019c-0.384-0.384-0.384-1.014,0-1.397l10.83-10.83c0.383-0.383,1.013-0.384,1.397,0
			l12.605,12.604C29.009,16.781,29.009,17.41,28.624,17.794z"/> </g> <g> <path fill="#010101" d="M16.708,15.017c0.607-0.024,1.193-0.288,1.651-0.743c0.865-0.865,1.121-2.36-0.059-3.541
			c-0.552-0.551-1.204-0.826-1.891-0.797c-0.607,0.026-1.191,0.292-1.646,0.745c-0.866,0.867-1.125,2.358,0.05,3.535
			C15.366,14.769,16.021,15.046,16.708,15.017z M17.489,11.542c0.648,0.647,0.459,1.427,0.01,1.875
			c-0.243,0.244-0.553,0.389-0.87,0.404c-0.353,0.02-0.693-0.124-0.983-0.417c-0.666-0.664-0.484-1.449-0.036-1.898
			C16.07,11.048,16.829,10.881,17.489,11.542z"/> <g> <path fill="#010101" d="M21.926,15.703c-0.107-0.105-0.322-0.185-0.473-0.177l-11.319,0.599
				c-0.152,0.009-0.186,0.102-0.079,0.208l0.759,0.759c0.109,0.108,0.32,0.19,0.469,0.182l11.333-0.627
				c0.152-0.008,0.187-0.102,0.078-0.206L21.926,15.703z"/> </g> <path fill="#010101" d="M17.867,18.599c-0.54-0.539-1.18-0.809-1.852-0.78c-0.597,0.025-1.169,0.285-1.617,0.729
			c-0.849,0.85-1.105,2.315,0.051,3.469c0.541,0.542,1.184,0.813,1.856,0.785c0.598-0.022,1.174-0.282,1.618-0.727
			C18.773,21.224,19.027,19.759,17.867,18.599z M15.244,21.242c-0.646-0.646-0.455-1.425-0.003-1.875
			c0.244-0.245,0.554-0.39,0.87-0.408c0.353-0.02,0.692,0.123,0.983,0.414c0.647,0.645,0.456,1.424,0.005,1.875
			c-0.245,0.246-0.556,0.39-0.873,0.406C15.875,21.677,15.534,21.534,15.244,21.242z"/> </g> </g> </symbol><symbol viewBox="0 0 32 32" id="icon-search"><title>search</title> <g> <g> <path fill="#010101" d="M23.998,12.001c0-6.625-5.371-11.997-11.997-11.997c-6.625,0-11.997,5.372-11.997,11.997
			c0,6.624,5.372,11.997,11.997,11.997C18.627,23.998,23.998,18.625,23.998,12.001z M12.001,20.998
			c-4.961,0-8.998-4.036-8.998-8.997s4.036-8.998,8.998-8.998c4.961,0,8.997,4.037,8.997,8.998S16.962,20.998,12.001,20.998z"/> <path fill="#010101" d="M31.118,26.876l-7.342-7.339c-1.092,1.701-2.54,3.147-4.241,4.241l7.341,7.341
			c1.172,1.169,3.073,1.169,4.242,0C32.288,29.949,32.288,28.048,31.118,26.876z"/> </g> </g> </symbol></svg>