<?xml version="1.0" encoding="utf-8"?>
<!-- Generator: Adobe Illustrator 18.1.1, SVG Export Plug-In . SVG Version: 6.00 Build 0)  -->
<svg version="1.1" id="Layer_1" xmlns="http://www.w3.org/2000/svg" xmlns:xlink="http://www.w3.org/1999/xlink" x="0px" y="0px"
	 viewBox="0 0 119.966 28.342" enable-background="new 0 0 119.966 28.342" xml:space="preserve">
<g>
	<path fill-rule="evenodd" clip-rule="evenodd" fill="#C7C9C9" d="M17.608,5.576l12.058-5.483c0.722-0.328,1.314,0.239,1.314,1.261
		v18.965c0,1.022-0.592,2.127-1.314,2.456l-12.058,5.483c-0.722,0.328-1.314-0.239-1.314-1.261V8.032
		C16.295,7.01,16.886,5.905,17.608,5.576L17.608,5.576z"/>
	<path fill-rule="evenodd" clip-rule="evenodd" fill="#00619F" d="M13.372,5.576L1.314,0.093C0.591-0.235,0,0.333,0,1.354v18.965
		c0,1.022,0.592,2.127,1.314,2.456l12.058,5.483c0.722,0.328,1.314-0.239,1.314-1.261V8.032C14.686,7.01,14.095,5.905,13.372,5.576
		L13.372,5.576z"/>
	<path fill="#00619F" d="M46.467,22.115l-4.535-8.226l4.226-6.958h-3.606l-3.888,6.958h-0.056V0h-3.634v22.114h3.634V14.17h0.056
		l3.86,7.944H46.467L46.467,22.115z M58.58,21.213V6.931H54.89v12.226c-0.394,0.225-0.902,0.366-1.465,0.366
		c-1.183,0-1.775-0.761-1.775-1.972V6.931h-3.662v10.198c0,3.803,1.944,5.273,5.324,5.273C55.707,22.401,57.482,21.918,58.58,21.213
		L58.58,21.213z M68.413,6.677c-3.493-0.169-5.437,0.281-6.818,1.098v14.339h3.634V9.607c0.704-0.338,1.662-0.366,2.507,0.056
		L68.413,6.677L68.413,6.677z M78.272,22.115v-2.761h-4.254l4.226-12.424h-8.649v2.732h4.085l-4.423,12.452H78.272L78.272,22.115z
		 M91.006,6.931h-3.352L85.4,17.213h-0.056L83.287,6.931H79.54l4.198,15.184l-2.169,6.062h3.691L91.006,6.931L91.006,6.931z"/>
	<path fill="#C7C9C9" d="M119.966,21.781l-4.535-8.226l4.226-6.958h-3.606l-3.888,6.958h-0.056V0h-3.634v21.781h3.634v-7.944h0.056
		l3.86,7.944H119.966L119.966,21.781z M106.078,17.556c0-2.226-1.127-3.324-2.705-4.507c-1.352-0.986-2.056-1.578-2.056-2.564
		c0-0.761,0.563-1.437,1.465-1.437c0.93,0,1.634,0.394,2,0.732l0.873-2.338c-0.873-0.704-2.085-1.127-3.718-1.127
		c-2.535,0-4.254,1.831-4.254,4.423c0,2,1.268,3.324,2.704,4.395c1.352,1.014,1.831,1.465,1.831,2.564
		c0,0.845-0.62,1.408-1.578,1.408c-0.986,0-1.887-0.45-2.31-0.845l-0.902,2.676c0.873,0.761,2.057,1.132,3.775,1.132
		C104.021,22.068,106.078,20.147,106.078,17.556L106.078,17.556z M95.401,19.669c0-1.268-1.043-2.31-2.338-2.31
		c-1.268,0-2.31,1.043-2.31,2.338c0,1.268,1.043,2.315,2.338,2.315C94.358,22.011,95.401,20.964,95.401,19.669L95.401,19.669z"/>
</g>
</svg>
