<?xml version="1.0" encoding="utf-8"?>
<!-- Generator: Adobe Illustrator 16.0.5, SVG Export Plug-In . SVG Version: 6.00 Build 0)  -->
<!DOCTYPE svg PUBLIC "-//W3C//DTD SVG 1.1//EN" "http://www.w3.org/Graphics/SVG/1.1/DTD/svg11.dtd">
<svg version="1.1" id="Layer_1" xmlns="http://www.w3.org/2000/svg" xmlns:xlink="http://www.w3.org/1999/xlink" x="0px" y="0px"
	 width="32px" height="32px" viewBox="0 0 32 32" enable-background="new 0 0 32 32" xml:space="preserve">
<g>
	<path d="M28.902,2.935h-3.709V1.482c0-0.8-0.651-1.451-1.453-1.451c-0.799,0-1.451,0.651-1.451,1.451v1.452h-4.837V1.482
		c0-0.8-0.651-1.451-1.452-1.451c-0.8,0-1.451,0.651-1.451,1.451v1.452h-4.84V1.482c0-0.8-0.651-1.451-1.452-1.451
		c-0.8,0-1.452,0.651-1.452,1.451v1.452H3.097C1.407,2.935,0.032,4.31,0.032,6v22.9c0,1.689,1.375,3.064,3.065,3.064h25.805
		c1.688,0,3.062-1.375,3.062-3.064V6C31.967,4.31,30.594,2.935,28.902,2.935z M2.936,6c0-0.09,0.072-0.162,0.162-0.162h3.709V7.29
		c0,0.801,0.652,1.452,1.452,1.452C9.06,8.742,9.71,8.09,9.71,7.29V5.838h4.839V7.29c0,0.801,0.651,1.452,1.451,1.452
		c0.801,0,1.452-0.651,1.452-1.452V5.838h4.837V7.29c0,0.801,0.652,1.452,1.451,1.452c0.802,0,1.453-0.651,1.453-1.452V5.838h3.709
		c0.09,0,0.162,0.072,0.162,0.161V28.9c0,0.088-0.073,0.164-0.162,0.164H3.097c-0.087,0-0.162-0.076-0.162-0.164L2.936,6L2.936,6z"
		/>
</g>
<rect x="7.001" y="12" width="3.999" height="3"/>
<rect x="7.001" y="16.999" width="3.999" height="3"/>
<rect x="7.001" y="21.998" width="3.999" height="2.999"/>
<rect x="14" y="21.998" width="3.999" height="2.999"/>
<rect x="14" y="16.999" width="3.999" height="3"/>
<rect x="14" y="12" width="3.999" height="3"/>
<rect x="20.999" y="21.998" width="4" height="2.999"/>
<rect x="20.999" y="16.999" width="4" height="3"/>
<rect x="20.999" y="12" width="4" height="3"/>
</svg>
