<?xml version="1.0" encoding="utf-8"?>
<!-- Generator: Adobe Illustrator 16.0.5, SVG Export Plug-In . SVG Version: 6.00 Build 0)  -->
<!DOCTYPE svg PUBLIC "-//W3C//DTD SVG 1.1//EN" "http://www.w3.org/Graphics/SVG/1.1/DTD/svg11.dtd">
<svg version="1.1" id="Layer_1" xmlns="http://www.w3.org/2000/svg" xmlns:xlink="http://www.w3.org/1999/xlink" x="0px" y="0px"
	 width="32px" height="32px" viewBox="0 0 32 32" enable-background="new 0 0 32 32" xml:space="preserve">
<g>
	<g>
		<path d="M24.979,19.128c0.469,0.233,0.703,0.634,0.703,1.194v4.533v0.81c0,0.353-0.104,0.655-0.314,0.914
			c-0.211,0.258-0.479,0.387-0.811,0.387H7.302c-0.305,0-0.562-0.129-0.774-0.387c-0.21-0.259-0.315-0.562-0.315-0.914v-0.81v-4.533
			c0-0.562,0.234-0.961,0.702-1.194l4.851-2.249L13.663,16c-0.891-0.539-1.571-1.312-2.039-2.319
			c-0.446-0.89-0.668-1.839-0.668-2.848c0-0.305,0.024-0.597,0.071-0.878c0.046-0.282,0.105-0.551,0.175-0.809
			c0.329-1.194,0.92-2.179,1.775-2.953c0.855-0.772,1.845-1.16,2.969-1.16c1.148,0,2.156,0.399,3.023,1.196
			c0.866,0.796,1.452,1.803,1.758,3.021c0.117,0.586,0.174,1.113,0.174,1.582c0,0.938-0.186,1.839-0.561,2.707
			c-0.469,1.055-1.146,1.851-2.037,2.39l2.002,0.949L24.979,19.128L24.979,19.128z M6.212,17.652
			C5.696,17.887,5.292,18.243,5,18.725c-0.293,0.479-0.439,1.014-0.439,1.598v4.535H0.94c-0.258,0-0.468-0.1-0.633-0.299
			c-0.164-0.199-0.246-0.451-0.246-0.756v-4.287c0-0.517,0.188-0.845,0.562-0.984L6.071,16c-0.656-0.398-1.184-0.966-1.582-1.705
			c-0.398-0.738-0.598-1.564-0.598-2.478c0-0.632,0.105-1.235,0.317-1.81c0.21-0.575,0.498-1.073,0.86-1.494
			c0.363-0.422,0.785-0.755,1.265-1.001c0.481-0.246,1.002-0.369,1.564-0.369c0.375,0,0.726,0.059,1.055,0.175
			C9.279,7.435,9.596,7.588,9.9,7.775C9.504,8.76,9.305,9.78,9.305,10.833c0,0.82,0.117,1.611,0.351,2.373
			c0.234,0.761,0.562,1.447,0.984,2.056c-0.258,0.282-0.527,0.504-0.809,0.668L6.212,17.652z M31.377,18.531
			c0.375,0.188,0.562,0.515,0.562,0.982V23.8c0,0.308-0.082,0.558-0.246,0.757s-0.375,0.299-0.635,0.299h-3.725v-4.533
			c0-0.586-0.146-1.118-0.438-1.6c-0.295-0.479-0.688-0.838-1.178-1.07L22.238,16c-0.328-0.188-0.645-0.456-0.949-0.809
			c0.398-0.609,0.709-1.283,0.932-2.021c0.223-0.738,0.334-1.517,0.334-2.337c0-0.539-0.048-1.053-0.141-1.545
			c-0.094-0.492-0.234-0.972-0.421-1.442c0.304-0.21,0.631-0.38,0.981-0.509c0.354-0.129,0.717-0.193,1.092-0.193
			c0.562,0,1.09,0.123,1.582,0.369c0.492,0.246,0.92,0.579,1.283,1.001c0.36,0.421,0.647,0.919,0.857,1.494
			c0.213,0.574,0.316,1.178,0.316,1.81c0,0.891-0.201,1.704-0.601,2.442c-0.396,0.738-0.899,1.307-1.509,1.706L31.377,18.531
			L31.377,18.531z"/>
	</g>
</g>
</svg>
