<?xml version="1.0" encoding="utf-8"?>
<!-- Generator: Adobe Illustrator 16.0.5, SVG Export Plug-In . SVG Version: 6.00 Build 0)  -->
<!DOCTYPE svg PUBLIC "-//W3C//DTD SVG 1.1//EN" "http://www.w3.org/Graphics/SVG/1.1/DTD/svg11.dtd">
<svg version="1.1" id="Layer_1" xmlns="http://www.w3.org/2000/svg" xmlns:xlink="http://www.w3.org/1999/xlink" x="0px" y="0px"
	 width="32px" height="32px" viewBox="0 0 32 32" enable-background="new 0 0 32 32" xml:space="preserve">
<g>
	<g id="Layer_1_78_">
		<g>
			<path d="M30.5,29.053H1.488c-0.802,0-1.451,0.65-1.451,1.453c0,0.801,0.649,1.449,1.451,1.449H30.5
				c0.801,0,1.451-0.648,1.451-1.449C31.949,29.703,31.301,29.053,30.5,29.053z"/>
			<path d="M3.301,25.281c-0.801,0-1.451,0.65-1.451,1.451s0.649,1.451,1.451,1.451h25.384c0.803,0,1.451-0.65,1.451-1.451
				s-0.648-1.451-1.451-1.451h-0.36V12.226h0.36c0.402,0,0.728-0.324,0.728-0.725c0-0.4-0.326-0.725-0.728-0.725H3.301
				c-0.401,0-0.725,0.325-0.725,0.725s0.324,0.725,0.725,0.725h0.363v13.055H3.301L3.301,25.281z M25.422,12.226v13.055H21.07
				V12.226H25.422z M18.168,12.226v13.055h-4.351V12.226H18.168z M6.564,12.226h4.352v13.055H6.564V12.226z"/>
			<path d="M1.488,9.473H30.5c0.004,0,0.01,0,0.014,0c0.801,0,1.449-0.649,1.449-1.451c0-0.637-0.408-1.177-0.979-1.373L16.59,0.172
				c-0.378-0.17-0.811-0.17-1.19,0L0.893,6.699C0.269,6.98-0.074,7.658,0.069,8.327C0.213,8.995,0.804,9.473,1.488,9.473z"/>
		</g>
	</g>
</g>
</svg>
