<?xml version="1.0" encoding="utf-8"?>
<!-- Generator: Adobe Illustrator 16.0.5, SVG Export Plug-In . SVG Version: 6.00 Build 0)  -->
<!DOCTYPE svg PUBLIC "-//W3C//DTD SVG 1.1//EN" "http://www.w3.org/Graphics/SVG/1.1/DTD/svg11.dtd">
<svg version="1.1" id="Layer_1" xmlns="http://www.w3.org/2000/svg" xmlns:xlink="http://www.w3.org/1999/xlink" x="0px" y="0px"
	 width="32px" height="32px" viewBox="0 0 32 32" enable-background="new 0 0 32 32" xml:space="preserve">
<g>
	<g>
		<path d="M23.275,27.758c0.238,0.038,0.479-0.021,0.678-0.162c0.191-0.14,0.326-0.354,0.359-0.596l0.217-1.423
			c0.041-0.285,0.22-0.53,0.479-0.66l1.288-0.644c0.219-0.109,0.383-0.299,0.454-0.526c0.075-0.231,0.054-0.481-0.058-0.696
			l-0.664-1.283c-0.129-0.252-0.129-0.558,0-0.81l0.664-1.283c0.109-0.215,0.133-0.463,0.058-0.694s-0.237-0.42-0.454-0.528
			l-1.288-0.644c-0.261-0.131-0.438-0.375-0.479-0.66l-0.217-1.423c-0.033-0.239-0.168-0.454-0.359-0.593
			c-0.197-0.144-0.438-0.202-0.678-0.164l-1.426,0.239c-0.281,0.046-0.57-0.047-0.771-0.251l-1.013-1.029
			c-0.172-0.17-0.401-0.267-0.646-0.267c-0.238,0-0.473,0.097-0.643,0.267l-1.012,1.029c-0.201,0.205-0.49,0.298-0.772,0.251
			l-1.423-0.235c-0.238-0.039-0.481,0.02-0.679,0.164c-0.194,0.14-0.326,0.354-0.362,0.593l-0.213,1.423
			c-0.044,0.285-0.223,0.527-0.479,0.66l-1.291,0.643c-0.213,0.111-0.379,0.298-0.453,0.529c-0.075,0.231-0.053,0.479,0.057,0.695
			l0.663,1.281c0.132,0.252,0.132,0.559,0,0.809l-0.663,1.285c-0.11,0.215-0.132,0.463-0.057,0.695
			c0.075,0.229,0.238,0.417,0.453,0.527l1.291,0.645c0.257,0.131,0.436,0.373,0.479,0.66l0.213,1.422
			c0.036,0.238,0.168,0.453,0.362,0.596c0.196,0.144,0.439,0.2,0.679,0.162l1.423-0.234c0.282-0.047,0.571,0.047,0.772,0.25
			l1.012,1.025c0.17,0.176,0.4,0.271,0.643,0.271c0.244,0,0.477-0.096,0.646-0.271l1.013-1.025c0.2-0.203,0.487-0.297,0.771-0.25
			L23.275,27.758z M19.422,26.719c-3.029,0-5.49-2.461-5.49-5.488c0-3.026,2.463-5.489,5.49-5.489c3.027,0,5.49,2.466,5.49,5.489
			C24.912,24.256,22.452,26.719,19.422,26.719z"/>
		<path d="M19.422,16.531c-2.585,0-4.691,2.104-4.691,4.689c0,2.588,2.107,4.69,4.691,4.69c2.59,0,4.691-2.103,4.691-4.69
			C24.113,18.637,22.012,16.531,19.422,16.531z"/>
		<path d="M27.598,28.786l-2.551-2.556l-0.132,0.863c-0.06,0.395-0.278,0.762-0.604,0.995c-0.322,0.235-0.727,0.336-1.131,0.271
			l-1.426-0.231c-0.119-0.01-0.188,0.024-0.24,0.078l-0.246,0.244l3.336,3.333c0.131,0.13,0.315,0.174,0.487,0.123
			c0.173-0.057,0.302-0.196,0.335-0.375l0.303-1.62l1.623-0.306c0.174-0.03,0.318-0.158,0.373-0.332
			C27.773,29.1,27.727,28.911,27.598,28.786z"/>
		<path d="M17.137,28.121l-1.469,0.238c-0.412,0.062-0.81-0.034-1.135-0.272c-0.324-0.235-0.543-0.599-0.604-0.998L13.8,26.23
			l-2.553,2.556c-0.127,0.127-0.174,0.313-0.122,0.485c0.055,0.174,0.199,0.299,0.375,0.334l1.622,0.304l0.304,1.622
			c0.033,0.179,0.161,0.318,0.333,0.375c0.171,0.051,0.359,0.007,0.484-0.121l3.334-3.335l-0.244-0.247
			C17.281,28.148,17.209,28.121,17.137,28.121z"/>
		<path d="M20.876,5.415H8.922c-0.431,0-0.779,0.349-0.779,0.78c-0.001,0.433,0.348,0.78,0.779,0.78h11.954
			c0.433,0,0.78-0.347,0.78-0.778C21.656,5.766,21.307,5.415,20.876,5.415z"/>
		<path d="M20.876,9.411H8.922c-0.431,0-0.779,0.349-0.779,0.777c-0.001,0.431,0.348,0.78,0.779,0.78h11.954
			c0.433,0,0.78-0.347,0.78-0.779C21.656,9.759,21.307,9.411,20.876,9.411z"/>
		<path d="M12.581,25.688l-0.589-0.295c-0.152-0.076-0.288-0.174-0.415-0.281H6.545c-0.345,0-0.625-0.282-0.625-0.625V2.357
			c0-0.345,0.28-0.625,0.625-0.625h16.747c0.345,0,0.624,0.28,0.624,0.625V13.77c0.277,0.065,0.545,0.187,0.779,0.361
			c0.455,0.325,0.771,0.846,0.855,1.414l0.024-13.186c0.004-1.26-1.024-2.287-2.284-2.287H6.545c-1.261,0-2.288,1.028-2.288,2.287
			v22.129c0,1.261,1.028,2.289,2.288,2.289h4.947L12.581,25.688z"/>
	</g>
</g>
</svg>
