<?xml version="1.0" encoding="utf-8"?>
<!-- Generator: Adobe Illustrator 16.0.5, SVG Export Plug-In . SVG Version: 6.00 Build 0)  -->
<!DOCTYPE svg PUBLIC "-//W3C//DTD SVG 1.1//EN" "http://www.w3.org/Graphics/SVG/1.1/DTD/svg11.dtd">
<svg version="1.1" id="Layer_1" xmlns="http://www.w3.org/2000/svg" xmlns:xlink="http://www.w3.org/1999/xlink" x="0px" y="0px"
	 width="32px" height="32px" viewBox="0 0 32 32" enable-background="new 0 0 32 32" xml:space="preserve">
<g>
	<g>
		<path fill="#060507" d="M23.276,27.758c0.238,0.038,0.479-0.021,0.677-0.163c0.191-0.139,0.326-0.354,0.36-0.595l0.217-1.423
			c0.04-0.285,0.219-0.53,0.479-0.66l1.288-0.644c0.219-0.109,0.382-0.298,0.454-0.526c0.075-0.232,0.053-0.481-0.057-0.696
			l-0.664-1.284c-0.129-0.251-0.129-0.557,0-0.809l0.664-1.283c0.109-0.215,0.132-0.463,0.057-0.694
			c-0.075-0.232-0.238-0.42-0.454-0.529l-1.288-0.643c-0.261-0.132-0.439-0.375-0.479-0.661l-0.217-1.423
			c-0.034-0.239-0.169-0.454-0.36-0.593c-0.197-0.144-0.438-0.202-0.677-0.164l-1.426,0.239c-0.282,0.046-0.57-0.047-0.771-0.251
			l-1.013-1.029c-0.172-0.17-0.401-0.267-0.646-0.267c-0.238,0-0.473,0.097-0.643,0.267l-1.012,1.029
			c-0.201,0.205-0.49,0.298-0.772,0.251l-1.423-0.235c-0.238-0.039-0.481,0.02-0.679,0.164c-0.194,0.14-0.326,0.354-0.362,0.593
			l-0.213,1.423c-0.044,0.286-0.223,0.528-0.479,0.66l-1.291,0.643c-0.213,0.111-0.379,0.298-0.453,0.529
			c-0.075,0.232-0.053,0.479,0.057,0.696l0.663,1.281c0.132,0.252,0.132,0.558,0,0.809l-0.663,1.285
			c-0.11,0.214-0.132,0.463-0.057,0.695c0.075,0.229,0.238,0.417,0.453,0.528l1.291,0.644c0.257,0.13,0.436,0.373,0.479,0.66
			l0.213,1.422c0.036,0.238,0.168,0.453,0.362,0.595c0.196,0.144,0.439,0.201,0.679,0.162l1.423-0.233
			c0.282-0.048,0.571,0.046,0.772,0.249l1.012,1.026c0.17,0.176,0.401,0.271,0.643,0.271c0.244,0,0.477-0.096,0.646-0.271
			l1.013-1.026c0.2-0.203,0.488-0.297,0.771-0.249L23.276,27.758z M19.422,26.719c-3.029,0-5.49-2.461-5.49-5.488
			s2.463-5.49,5.49-5.49c3.027,0,5.49,2.466,5.49,5.49C24.912,24.256,22.452,26.719,19.422,26.719z"/>
		<path fill="#060507" d="M19.422,16.531c-2.585,0-4.691,2.104-4.691,4.689c0,2.589,2.107,4.691,4.691,4.691
			c2.589,0,4.691-2.103,4.691-4.691C24.113,18.636,22.011,16.531,19.422,16.531z"/>
		<path fill="#060507" d="M27.598,28.786l-2.551-2.555l-0.132,0.862c-0.06,0.395-0.278,0.762-0.604,0.996
			c-0.322,0.235-0.727,0.336-1.131,0.27l-1.426-0.231c-0.119-0.01-0.188,0.025-0.241,0.078l-0.245,0.244l3.335,3.333
			c0.131,0.13,0.316,0.174,0.488,0.124c0.173-0.057,0.301-0.197,0.335-0.376l0.302-1.62l1.623-0.305
			c0.175-0.031,0.319-0.159,0.373-0.333C27.773,29.1,27.727,28.911,27.598,28.786z"/>
		<path fill="#060507" d="M17.137,28.121l-1.469,0.238c-0.412,0.062-0.81-0.034-1.135-0.272c-0.324-0.235-0.543-0.599-0.604-0.998
			L13.8,26.231l-2.553,2.555c-0.127,0.127-0.174,0.313-0.122,0.485c0.055,0.174,0.199,0.3,0.375,0.335l1.622,0.303l0.304,1.622
			c0.033,0.179,0.161,0.319,0.333,0.376c0.171,0.05,0.359,0.006,0.484-0.122l3.334-3.335l-0.244-0.247
			C17.281,28.149,17.209,28.121,17.137,28.121z"/>
		<path fill="#060507" d="M20.876,5.415H8.922c-0.431,0-0.779,0.349-0.779,0.78c-0.001,0.433,0.348,0.78,0.779,0.78h11.954
			c0.433,0,0.78-0.347,0.78-0.778C21.656,5.766,21.306,5.415,20.876,5.415z"/>
		<path fill="#060507" d="M20.876,9.411H8.922c-0.431,0-0.779,0.349-0.779,0.777c-0.001,0.431,0.348,0.78,0.779,0.78h11.954
			c0.433,0,0.78-0.347,0.78-0.779C21.656,9.759,21.306,9.411,20.876,9.411z"/>
		<path fill="#060507" d="M12.581,25.687l-0.589-0.295c-0.152-0.076-0.288-0.174-0.415-0.281H6.545
			c-0.345,0-0.625-0.282-0.625-0.624V2.357c0-0.345,0.28-0.625,0.625-0.625h16.747c0.345,0,0.624,0.28,0.624,0.625V13.77
			c0.278,0.065,0.545,0.187,0.78,0.361c0.454,0.325,0.771,0.846,0.855,1.414l0.024-13.186c0.004-1.26-1.024-2.287-2.284-2.287H6.545
			c-1.261,0-2.288,1.028-2.288,2.287v22.129c0,1.261,1.028,2.289,2.288,2.289h4.947L12.581,25.687z"/>
	</g>
</g>
</svg>
