<?xml version="1.0" encoding="utf-8"?>
<!-- Generator: Adobe Illustrator 19.0.0, SVG Export Plug-In . SVG Version: 6.00 Build 0)  -->
<!DOCTYPE svg PUBLIC "-//W3C//DTD SVG 1.1//EN" "http://www.w3.org/Graphics/SVG/1.1/DTD/svg11.dtd">
<svg version="1.1" id="Layer_1" xmlns="http://www.w3.org/2000/svg" xmlns:xlink="http://www.w3.org/1999/xlink" x="0px" y="0px"
	 viewBox="-58 32 32 32" style="enable-background:new -58 32 32 32;" xml:space="preserve">
<g>
	<path d="M-42,32c-5.8,0-10.6,4.8-10.6,10.6c0,2.4,1.5,6.2,4.6,11.7c2.2,3.9,4.3,7.2,4.4,7.3L-42,64l1.6-2.4
		c0.1-0.1,2.2-3.4,4.4-7.3c3.1-5.5,4.6-9.4,4.6-11.7C-31.4,36.7-36.2,32-42,32z M-42,48c-3,0-5.5-2.5-5.5-5.5c0-3,2.5-5.5,5.5-5.5
		s5.5,2.5,5.5,5.5C-36.5,45.5-39,48-42,48z"/>
</g>
</svg>
