<?xml version="1.0" encoding="utf-8"?>
<!-- Generator: Adobe Illustrator 16.0.5, SVG Export Plug-In . SVG Version: 6.00 Build 0)  -->
<!DOCTYPE svg PUBLIC "-//W3C//DTD SVG 1.1//EN" "http://www.w3.org/Graphics/SVG/1.1/DTD/svg11.dtd">
<svg version="1.1" id="Layer_1" xmlns="http://www.w3.org/2000/svg" xmlns:xlink="http://www.w3.org/1999/xlink" x="0px" y="0px"
	 width="32px" height="32px" viewBox="0 0 32 32" enable-background="new 0 0 32 32" xml:space="preserve">
<g>
	<path fill="#010101" d="M16-0.031c-5.843,0-10.596,4.753-10.596,10.597c0,2.353,1.503,6.189,4.594,11.73
		c2.186,3.917,4.336,7.184,4.427,7.32L16,32.005l1.575-2.389c0.09-0.137,2.241-3.403,4.427-7.32
		c3.092-5.541,4.595-9.377,4.595-11.73C26.597,4.722,21.844-0.031,16-0.031z M16,15.987c-3.033,0-5.493-2.459-5.493-5.492
		c0-3.034,2.459-5.493,5.493-5.493s5.493,2.459,5.493,5.493C21.493,13.528,19.033,15.987,16,15.987z"/>
</g>
</svg>
