<?xml version="1.0" encoding="utf-8"?>
<!-- Generator: Adobe Illustrator 16.0.5, SVG Export Plug-In . SVG Version: 6.00 Build 0)  -->
<!DOCTYPE svg PUBLIC "-//W3C//DTD SVG 1.1//EN" "http://www.w3.org/Graphics/SVG/1.1/DTD/svg11.dtd">
<svg version="1.1" id="Layer_1" xmlns="http://www.w3.org/2000/svg" xmlns:xlink="http://www.w3.org/1999/xlink" x="0px" y="0px"
	 width="32px" height="32px" viewBox="0 0 32 32" enable-background="new 0 0 32 32" xml:space="preserve">
<g>
	<path fill="#010101" d="M21.847,19.969h-8.149c0.057,2.754,0.722,4.871,1.995,6.351c1.273,1.483,3.077,2.224,5.412,2.224
		c1.642,0,3.184-0.239,4.626-0.722l0.425,3.414c-1.698,0.428-3.396,0.64-5.094,0.64c-3.509,0-6.271-1.034-8.288-3.109
		c-2.016-2.072-3.066-5.003-3.151-8.797H5.845v-2.632h3.778v-2.908H5.845v-2.652h3.778c0.141-3.707,1.22-6.576,3.236-8.606
		c2.016-2.03,4.744-3.045,8.181-3.045c1.501,0,3.205,0.218,5.115,0.654L25.73,4.2c-1.541-0.495-3.09-0.743-4.647-0.743
		c-2.32,0-4.107,0.72-5.359,2.16c-1.252,1.44-1.921,3.493-2.006,6.16h8.128v2.652h-8.149v2.908h8.149V19.969z"/>
</g>
</svg>
