<?xml version="1.0" encoding="utf-8"?>
<!-- Generator: Adobe Illustrator 16.0.5, SVG Export Plug-In . SVG Version: 6.00 Build 0)  -->
<!DOCTYPE svg PUBLIC "-//W3C//DTD SVG 1.1//EN" "http://www.w3.org/Graphics/SVG/1.1/DTD/svg11.dtd">
<svg version="1.1" id="Layer_1" xmlns="http://www.w3.org/2000/svg" xmlns:xlink="http://www.w3.org/1999/xlink" x="0px" y="0px"
	 width="32px" height="32px" viewBox="0 0 32 32" enable-background="new 0 0 32 32" xml:space="preserve">
<g>
	<g>
		<path d="M16.245,0.876c-0.383-0.385-1.141-0.682-1.685-0.662L1.025,0C0.482,0.021,0.021,0.482,0,1.024L0.214,14.56
			c-0.021,0.542,0.277,1.301,0.661,1.687l15.477,15.478c0.384,0.383,1.011,0.383,1.398,0l13.973-13.976
			c0.383-0.386,0.383-1.013,0-1.397L16.245,0.876z M3.257,3.208c0.839-0.839,2.2-0.839,3.039,0c0.84,0.84,0.839,2.201,0,3.04
			c-0.839,0.84-2.2,0.84-3.039,0C2.417,5.408,2.417,4.048,3.257,3.208z M28.624,17.794l-10.828,10.83
			c-0.386,0.385-1.015,0.385-1.399,0L3.792,16.019c-0.384-0.384-0.384-1.014,0-1.397l10.83-10.83c0.383-0.383,1.013-0.384,1.397,0
			l12.605,12.604C29.009,16.781,29.009,17.41,28.624,17.794z"/>
	</g>
	<g>
		<path d="M16.708,15.017c0.606-0.024,1.192-0.288,1.651-0.743c0.865-0.865,1.121-2.36-0.06-3.541
			c-0.552-0.551-1.204-0.826-1.891-0.797c-0.607,0.026-1.191,0.292-1.646,0.745c-0.866,0.867-1.125,2.358,0.05,3.535
			C15.366,14.769,16.021,15.046,16.708,15.017z M17.488,11.542c0.648,0.647,0.459,1.427,0.011,1.875
			c-0.243,0.244-0.554,0.389-0.87,0.404c-0.353,0.02-0.693-0.124-0.983-0.417c-0.666-0.664-0.484-1.449-0.036-1.898
			C16.07,11.048,16.829,10.881,17.488,11.542z"/>
		<g>
			<path d="M21.926,15.703c-0.107-0.105-0.322-0.185-0.473-0.177l-11.319,0.599c-0.152,0.009-0.186,0.102-0.079,0.208l0.759,0.759
				c0.109,0.108,0.32,0.189,0.469,0.182l11.333-0.627c0.151-0.008,0.187-0.102,0.077-0.206L21.926,15.703z"/>
		</g>
		<path d="M17.867,18.6c-0.54-0.539-1.18-0.81-1.852-0.781c-0.597,0.025-1.169,0.285-1.617,0.729
			c-0.849,0.851-1.105,2.315,0.051,3.47c0.541,0.541,1.184,0.812,1.856,0.785c0.597-0.023,1.173-0.283,1.618-0.728
			C18.773,21.225,19.027,19.759,17.867,18.6z M15.244,21.242c-0.646-0.646-0.455-1.426-0.003-1.875
			c0.244-0.245,0.554-0.391,0.87-0.408c0.353-0.02,0.692,0.123,0.983,0.414c0.647,0.645,0.456,1.424,0.006,1.875
			c-0.246,0.246-0.557,0.391-0.874,0.406C15.875,21.678,15.534,21.534,15.244,21.242z"/>
	</g>
</g>
</svg>
