<?xml version="1.0" encoding="utf-8"?>
<!-- Generator: Adobe Illustrator 16.0.5, SVG Export Plug-In . SVG Version: 6.00 Build 0)  -->
<!DOCTYPE svg PUBLIC "-//W3C//DTD SVG 1.1//EN" "http://www.w3.org/Graphics/SVG/1.1/DTD/svg11.dtd">
<svg version="1.1" id="Layer_1" xmlns="http://www.w3.org/2000/svg" xmlns:xlink="http://www.w3.org/1999/xlink" x="0px" y="0px"
	 width="32px" height="32px" viewBox="0 0 32 32" enable-background="new 0 0 32 32" xml:space="preserve">
<g>
	<g>
		<path fill="#010101" d="M23.998,12.001c0-6.625-5.371-11.997-11.997-11.997c-6.625,0-11.997,5.372-11.997,11.997
			c0,6.624,5.372,11.997,11.997,11.997C18.627,23.998,23.998,18.625,23.998,12.001z M12.001,20.998
			c-4.961,0-8.998-4.036-8.998-8.997s4.036-8.998,8.998-8.998c4.961,0,8.997,4.037,8.997,8.998S16.962,20.998,12.001,20.998z"/>
		<path fill="#010101" d="M31.118,26.876l-7.342-7.339c-1.092,1.701-2.54,3.147-4.241,4.241l7.341,7.341
			c1.172,1.169,3.073,1.169,4.242,0C32.288,29.949,32.288,28.048,31.118,26.876z"/>
	</g>
</g>
</svg>
